<svg width="347" height="47" viewBox="0 0 347 47" fill="none" xmlns="http://www.w3.org/2000/svg">
<path d="M176.696 45.0255C173.278 45.0255 170.222 44.582 167.538 43.695C164.844 42.808 162.492 41.5379 160.482 39.8849L162.291 35.8934C163.698 36.9416 165.116 37.8186 166.543 38.5241C167.971 39.2297 169.509 39.7538 171.157 40.0966C172.806 40.4393 174.655 40.6106 176.706 40.6106C180.284 40.6106 182.938 39.9453 184.657 38.6148C186.386 37.2843 187.25 35.5103 187.25 33.2928C187.25 31.3979 186.647 29.9464 185.441 28.9385C184.235 27.9305 182.124 27.1241 179.108 26.5194L172.775 25.2493C168.875 24.443 165.97 23.1326 164.07 21.3183C162.16 19.504 161.206 17.0446 161.206 13.94C161.206 11.4 161.859 9.18249 163.166 7.28753C164.472 5.39257 166.312 3.92095 168.684 2.87267C171.057 1.8244 173.811 1.30026 176.937 1.30026C179.953 1.30026 182.707 1.75384 185.19 2.66101C187.683 3.56817 189.814 4.88859 191.583 6.62228L189.834 10.4928C187.944 8.79946 185.964 7.57983 183.893 6.83395C181.822 6.08806 179.48 5.71512 176.867 5.71512C173.57 5.71512 170.966 6.43076 169.066 7.86206C167.156 9.29336 166.201 11.2387 166.201 13.6981C166.201 15.6737 166.805 17.2159 168.011 18.3247C169.217 19.4334 171.207 20.27 173.982 20.8345L180.375 22.1045C184.476 22.9512 187.492 24.2212 189.412 25.9146C191.342 27.6079 192.307 29.9867 192.307 33.0509C192.307 35.3894 191.673 37.4658 190.407 39.2801C189.14 41.0944 187.341 42.5056 185.009 43.5135C182.677 44.5215 179.902 45.0255 176.696 45.0255Z" fill="#B66849"/>
<path d="M213.275 45.0255C208.531 45.0255 204.801 43.6446 202.067 40.8828C199.333 38.121 197.966 34.2806 197.966 29.3719C197.966 26.1867 198.569 23.4149 199.775 21.0663C200.982 18.7077 202.67 16.8732 204.842 15.5629C207.013 14.2525 209.506 13.5974 212.31 13.5974C215.085 13.5974 217.417 14.182 219.307 15.3512C221.196 16.5204 222.644 18.1836 223.649 20.3406C224.654 22.4976 225.157 25.0477 225.157 27.9809V29.7952H201.705V26.7109H221.96L220.935 27.4971C220.935 24.2716 220.211 21.7517 218.764 19.9374C217.316 18.1231 215.165 17.2159 212.31 17.2159C209.295 17.2159 206.943 18.2743 205.254 20.391C203.565 22.5077 202.721 25.3602 202.721 28.9385V29.4828C202.721 33.2727 203.655 36.1454 205.525 38.0907C207.395 40.0462 210.018 41.0239 213.386 41.0239C215.195 41.0239 216.894 40.7517 218.482 40.2074C220.071 39.6631 221.588 38.7661 223.036 37.5162L224.725 40.9634C223.398 42.2536 221.719 43.2515 219.689 43.957C217.668 44.6727 215.527 45.0255 213.275 45.0255Z" fill="#B66849"/>
<path d="M244.135 45.0255C241.441 45.0255 239.089 44.3905 237.079 43.1204C235.068 41.8504 233.51 40.0462 232.404 37.7077C231.299 35.3692 230.746 32.5671 230.746 29.3114C230.746 26.0053 231.299 23.183 232.404 20.8546C233.51 18.5162 235.068 16.722 237.079 15.4721C239.089 14.2223 241.441 13.5974 244.135 13.5974C246.869 13.5974 249.232 14.2928 251.222 15.6838C253.212 17.0748 254.529 18.9597 255.172 21.3385H254.439L255.102 14.1416H259.806C259.686 15.3109 259.575 16.4902 259.475 17.6796C259.374 18.869 259.324 20.0281 259.324 21.157V44.4812H254.439V37.3448H255.102C254.459 39.7236 253.132 41.5984 251.121 42.9692C249.111 44.3401 246.789 45.0255 244.135 45.0255ZM245.1 41.034C247.995 41.034 250.287 40.0361 251.976 38.0403C253.665 36.0446 254.509 33.1316 254.509 29.3114C254.509 25.4408 253.665 22.5077 251.976 20.522C250.287 18.5263 247.995 17.5284 245.1 17.5284C242.245 17.5284 239.964 18.5263 238.255 20.522C236.546 22.5178 235.691 25.4509 235.691 29.3114C235.691 33.1416 236.546 36.0546 238.255 38.0403C239.964 40.0361 242.245 41.034 245.1 41.034Z" fill="#B66849"/>
<path d="M268.662 44.4812V21.4493C268.662 20.2398 268.632 19.0101 268.572 17.7602C268.512 16.5103 268.421 15.3008 268.3 14.1316H273.005L273.608 21.5098L272.764 21.5703C273.166 19.756 273.869 18.2642 274.874 17.095C275.88 15.9257 277.066 15.0488 278.433 14.4642C279.8 13.8796 281.227 13.5873 282.715 13.5873C283.318 13.5873 283.851 13.6074 284.313 13.6477C284.776 13.6881 285.208 13.7889 285.61 13.9501L285.55 18.3045C284.947 18.1029 284.394 17.9719 283.891 17.9114C283.389 17.8509 282.816 17.8207 282.172 17.8207C280.403 17.8207 278.865 18.244 277.558 19.0907C276.252 19.9374 275.267 21.026 274.603 22.3565C273.94 23.687 273.608 25.0981 273.608 26.5899V44.4812H268.662V44.4812Z" fill="#B66849"/>
<path d="M303.02 45.0255C300.045 45.0255 297.462 44.3804 295.28 43.0902C293.089 41.8 291.4 39.9655 290.214 37.5867C289.028 35.208 288.435 32.3857 288.435 29.13C288.435 25.8239 289.038 23.0117 290.244 20.7035C291.45 18.3851 293.149 16.6212 295.341 15.4117C297.532 14.2021 300.095 13.5974 303.02 13.5974C304.95 13.5974 306.83 13.9401 308.66 14.6255C310.489 15.3109 312.007 16.2785 313.213 17.5284L311.464 21.0361C310.258 19.8668 308.941 19 307.514 18.4355C306.086 17.8711 304.689 17.5889 303.322 17.5889C300.186 17.5889 297.753 18.5767 296.024 20.5523C294.295 22.5279 293.431 25.4106 293.431 29.1905C293.431 32.9401 294.295 35.843 296.024 37.8891C297.753 39.9454 300.186 40.9735 303.322 40.9735C304.649 40.9735 306.026 40.7114 307.453 40.1873C308.881 39.6631 310.218 38.7963 311.464 37.5867L313.213 41.034C311.967 42.3241 310.419 43.3119 308.569 43.9974C306.719 44.6828 304.87 45.0255 303.02 45.0255Z" fill="#B66849"/>
<path d="M320.139 44.4812V0H325.024V20.8546H324.24C325.085 18.4759 326.502 16.6716 328.492 15.4419C330.483 14.2122 332.785 13.5973 335.398 13.5973C339.017 13.5973 341.711 14.5751 343.47 16.5305C345.239 18.4859 346.124 21.4393 346.124 25.3804V44.4812H341.238V25.6828C341.238 22.8605 340.685 20.8042 339.58 19.5141C338.474 18.2239 336.695 17.5788 334.242 17.5788C331.428 17.5788 329.186 18.4456 327.517 20.1793C325.849 21.913 325.014 24.191 325.014 27.0133V44.4812H320.139V44.4812Z" fill="#B66849"/>
<path d="M0 45.4806V2.1183H17.1589C21.7024 2.1183 25.2106 3.1061 27.6834 5.07162C30.1562 7.03713 31.3927 9.82918 31.3927 13.4377C31.3927 16.1491 30.5885 18.3968 28.9902 20.2011C27.3919 22.0053 25.1704 23.1947 22.3257 23.7692V22.9125C25.4921 23.2854 27.9749 24.3841 29.7843 26.1984C31.5937 28.0228 32.4883 30.4721 32.4883 33.5464C32.4883 37.3968 31.2218 40.3501 28.6886 42.4064C26.1555 44.4525 22.577 45.4806 17.953 45.4806H0ZM4.92552 21.4912H16.4251C19.7523 21.4912 22.2453 20.8361 23.9139 19.5257C25.5725 18.2154 26.4068 16.3305 26.4068 13.8711C26.4068 11.331 25.5725 9.41591 23.9139 8.11565C22.2453 6.82546 19.7523 6.18037 16.4251 6.18037H4.92552V21.4912ZM4.92552 41.3682H17.4605C20.5465 41.3682 22.9891 40.7634 24.7884 39.5538C26.5978 38.3443 27.4924 36.3284 27.4924 33.496C27.4924 30.6233 26.5878 28.5873 24.7884 27.3777C22.9791 26.1682 20.5364 25.5634 17.4605 25.5634H4.92552V41.3682Z" fill="#F5F5F5"/>
<path d="M53.4268 46.035C50.4615 46.035 47.8982 45.3899 45.7269 44.0997C43.5557 42.8095 41.887 40.965 40.7109 38.566C39.5348 36.1671 38.9418 33.3247 38.9418 30.0488C38.9418 26.7225 39.5248 23.8801 40.7109 21.5013C41.887 19.1225 43.5557 17.2881 45.7269 15.9979C47.8982 14.7077 50.4414 14.0626 53.3665 14.0626C56.3319 14.0626 58.8952 14.7077 61.0664 15.9979C63.2377 17.2881 64.9164 19.1225 66.1126 21.5013C67.3088 23.8801 67.9119 26.7326 67.9119 30.0488C67.9119 33.3347 67.3088 36.1671 66.1126 38.566C64.9164 40.965 63.2276 42.8095 61.0664 44.0997C58.8952 45.3899 56.3419 46.035 53.4268 46.035ZM53.4268 41.983C56.3017 41.983 58.6037 40.965 60.3025 38.939C62.0013 36.913 62.8557 33.9496 62.8557 30.0488C62.8557 26.1077 61.9912 23.1342 60.2723 21.0981C58.5433 19.0721 56.2414 18.0541 53.3665 18.0541C50.4816 18.0541 48.1897 19.0721 46.4909 21.0981C44.7921 23.1241 43.9276 26.1077 43.9276 30.0488C43.9276 33.9496 44.782 36.9029 46.4808 38.939C48.1897 40.965 50.5017 41.983 53.4268 41.983Z" fill="#F5F5F5"/>
<path d="M88.1668 46.035C85.2014 46.035 82.6382 45.3899 80.4669 44.0997C78.2957 42.8095 76.627 40.965 75.4509 38.566C74.2748 36.1671 73.6818 33.3247 73.6818 30.0488C73.6818 26.7225 74.2648 23.8801 75.4509 21.5013C76.627 19.1225 78.2957 17.2881 80.4669 15.9979C82.6382 14.7077 85.1813 14.0626 88.1065 14.0626C91.0719 14.0626 93.6351 14.7077 95.8064 15.9979C97.9776 17.2881 99.6564 19.1225 100.853 21.5013C102.049 23.8801 102.652 26.7326 102.652 30.0488C102.652 33.3347 102.049 36.1671 100.853 38.566C99.6564 40.965 97.9676 42.8095 95.8064 44.0997C93.6351 45.3899 91.092 46.035 88.1668 46.035ZM88.1668 41.983C91.0417 41.983 93.3436 40.965 95.0424 38.939C96.7412 36.913 97.5957 33.9496 97.5957 30.0488C97.5957 26.1077 96.7312 23.1342 95.0123 21.0981C93.2833 19.0721 90.9814 18.0541 88.1065 18.0541C85.2216 18.0541 82.9297 19.0721 81.2309 21.0981C79.5321 23.1241 78.6776 26.1077 78.6776 30.0488C78.6776 33.9496 79.5321 36.9029 81.2309 38.939C82.9397 40.965 85.2517 41.983 88.1668 41.983Z" fill="#F5F5F5"/>
<path d="M110.322 45.4806V0.213257H115.247V28.3252H115.368L129.541 14.6069H135.743L119.017 30.7241L119.137 28.2042L137.332 45.4907H130.938L115.358 30.9761H115.237V45.4907H110.322V45.4806Z" fill="#F5F5F5"/>
</svg>
